<svg width="32" height="24" viewBox="0 0 32 24" fill="none" xmlns="http://www.w3.org/2000/svg">
<path d="M0 3C0 1.34315 1.34315 0 3 0H29C30.6569 0 32 1.34315 32 3V21C32 22.6569 30.6569 24 29 24H3C1.34315 24 0 22.6569 0 21V3Z" fill="#34C759"/>
<path d="M15.878 11.918C15.878 12.66 15.752 13.3484 15.5 13.983C15.2527 14.6177 14.9003 15.166 14.443 15.628C13.9903 16.09 13.4443 16.454 12.805 16.72C12.1657 16.9814 11.4563 17.112 10.677 17.112C9.89766 17.112 9.18833 16.9814 8.54899 16.72C7.90966 16.454 7.36133 16.09 6.90399 15.628C6.44666 15.166 6.09199 14.6177 5.83999 13.983C5.59266 13.3484 5.46899 12.66 5.46899 11.918C5.46899 11.176 5.59266 10.49 5.83999 9.86002C6.09199 9.22535 6.44666 8.67702 6.90399 8.21502C7.36133 7.75302 7.90966 7.39135 8.54899 7.13002C9.18833 6.86402 9.89766 6.73102 10.677 6.73102C11.4563 6.73102 12.1657 6.86402 12.805 7.13002C13.4443 7.39135 13.9903 7.75535 14.443 8.22202C14.9003 8.68402 15.2527 9.23235 15.5 9.86702C15.752 10.497 15.878 11.1807 15.878 11.918ZM13.729 11.918C13.729 11.386 13.659 10.91 13.519 10.49C13.379 10.0654 13.176 9.70602 12.91 9.41202C12.6487 9.11335 12.329 8.88702 11.951 8.73302C11.5777 8.57435 11.153 8.49502 10.677 8.49502C10.201 8.49502 9.77399 8.57435 9.39599 8.73302C9.01799 8.88702 8.69599 9.11335 8.42999 9.41202C8.16866 9.70602 7.96799 10.0654 7.82799 10.49C7.68799 10.91 7.61799 11.386 7.61799 11.918C7.61799 12.4547 7.68799 12.9354 7.82799 13.36C7.96799 13.78 8.16866 14.137 8.42999 14.431C8.69599 14.725 9.01799 14.9514 9.39599 15.11C9.77399 15.264 10.201 15.341 10.677 15.341C11.153 15.341 11.5777 15.264 11.951 15.11C12.329 14.9514 12.6487 14.725 12.91 14.431C13.176 14.137 13.379 13.78 13.519 13.36C13.659 12.9354 13.729 12.4547 13.729 11.918Z" fill="white"/>
<path d="M19.5117 11.036H19.9247C20.27 11.036 20.5197 10.9287 20.6737 10.714L23.2427 7.27702C23.364 7.11369 23.497 7.00169 23.6417 6.94102C23.7863 6.87568 23.9637 6.84302 24.1737 6.84302H25.9937L22.7597 11.008C22.5497 11.2787 22.3327 11.4724 22.1087 11.589C22.272 11.6544 22.419 11.7407 22.5497 11.848C22.6803 11.9507 22.8063 12.0884 22.9277 12.261L26.2457 17H24.3767C24.2553 17 24.1503 16.9907 24.0617 16.972C23.9777 16.9534 23.903 16.9277 23.8377 16.895C23.7723 16.8624 23.7163 16.8227 23.6697 16.776C23.623 16.7247 23.5787 16.6664 23.5367 16.601L20.9257 12.947C20.837 12.821 20.732 12.7324 20.6107 12.681C20.4893 12.625 20.319 12.597 20.0997 12.597H19.5117V17H17.4117V6.84302H19.5117V11.036Z" fill="white"/>
</svg>
