<svg width="29" height="24" viewBox="0 0 29 24" fill="none" xmlns="http://www.w3.org/2000/svg">
<path d="M11.7083 1.52525C13.0209 -0.508414 15.9791 -0.508417 17.2917 1.52525L28.4573 18.8252C29.8957 21.0539 28.3064 24 25.6657 24H3.33433C0.693606 24 -0.895744 21.0539 0.542673 18.8252L11.7083 1.52525Z" fill="#FF2D55"/>
<path d="M10.6211 16.6105L10.1553 11.6211L10.0621 9H13.1056L13.0124 11.6211L12.5466 16.6105H10.6211ZM11.5839 21C11.118 21 10.735 20.8474 10.4348 20.5421C10.1449 20.2368 10 19.8526 10 19.3895C10 18.9263 10.1501 18.5474 10.4503 18.2526C10.7505 17.9579 11.1284 17.8105 11.5839 17.8105C12.0393 17.8105 12.4172 17.9579 12.7174 18.2526C13.0176 18.5474 13.1677 18.9263 13.1677 19.3895C13.1677 19.8526 13.0176 20.2368 12.7174 20.5421C12.4172 20.8474 12.0393 21 11.5839 21Z" fill="white"/>
<path d="M17.4534 16.6105L16.9876 11.6211L16.8944 9H19.9379L19.8447 11.6211L19.3789 16.6105H17.4534ZM18.4161 21C17.9503 21 17.5673 20.8474 17.2671 20.5421C16.9772 20.2368 16.8323 19.8526 16.8323 19.3895C16.8323 18.9263 16.9824 18.5474 17.2826 18.2526C17.5828 17.9579 17.9607 17.8105 18.4161 17.8105C18.8716 17.8105 19.2495 17.9579 19.5497 18.2526C19.8499 18.5474 20 18.9263 20 19.3895C20 19.8526 19.8499 20.2368 19.5497 20.5421C19.2495 20.8474 18.8716 21 18.4161 21Z" fill="white"/>
</svg>
