<svg width="40" height="44" viewBox="0 0 40 44" fill="none" xmlns="http://www.w3.org/2000/svg">
<path d="M28 0C29.1046 0 30 0.89543 30 2V4H34C37.3137 4 40 6.68629 40 10V38C40 41.3137 37.3137 44 34 44H6C2.68629 44 0 41.3137 0 38V10C0 6.68629 2.68629 4 6 4H10V2C10 0.89543 10.8954 0 12 0C13.1046 0 14 0.89543 14 2V4H26V2C26 0.89543 26.8954 0 28 0ZM4 38C4 39.1046 4.89543 40 6 40H34C35.1046 40 36 39.1046 36 38V20H4V38ZM6 8C4.89543 8 4 8.89543 4 10V16H36V10C36 8.89543 35.1046 8 34 8H30V10C30 11.1046 29.1046 12 28 12C26.8954 12 26 11.1046 26 10V8H14V10C14 11.1046 13.1046 12 12 12C10.8954 12 10 11.1046 10 10V8H6Z" fill="#48484A"/>
</svg>
