<svg width="38" height="42" viewBox="0 0 38 42" fill="none" xmlns="http://www.w3.org/2000/svg">
<path d="M35.0361 8.24395C35.5827 8.244 36.1067 8.46101 36.4932 8.84747C36.8796 9.23396 37.0967 9.75795 37.0967 10.3045C37.0945 14.8655 35.4125 19.266 32.3711 22.6649C29.3296 26.0637 25.1421 28.2225 20.6094 28.7293V30.9139H22.6699C23.2165 30.9139 23.7414 31.1309 24.1279 31.5174C24.5143 31.9038 24.7314 32.428 24.7314 32.9744C24.7314 33.521 24.5144 34.0459 24.1279 34.4324C23.7414 34.8189 23.2165 35.0359 22.6699 35.0359H20.6094V39.158C20.6093 39.7044 20.3923 40.2286 20.0059 40.615C19.6194 41.0014 19.0953 41.2185 18.5488 41.2186C18.0022 41.2186 17.4773 41.0015 17.0908 40.615C16.7045 40.2287 16.4874 39.7044 16.4873 39.158V35.0359H14.4268C13.8804 35.0359 13.3562 34.8187 12.9697 34.4324C12.5832 34.0459 12.3652 33.521 12.3652 32.9744C12.3653 32.4279 12.5833 31.9038 12.9697 31.5174C13.3562 31.131 13.8803 30.9139 14.4268 30.9139H16.4873V28.7293C11.9548 28.2225 7.76795 26.0634 4.72656 22.6649C1.68511 19.266 0.0021742 14.8655 0 10.3045C0 9.75801 0.217158 9.23395 0.603516 8.84747C0.989917 8.46107 1.5141 8.24406 2.06055 8.24395C2.60714 8.24395 3.13205 8.46097 3.51855 8.84747C3.90487 9.23394 4.12207 9.75804 4.12207 10.3045C4.12208 14.1306 5.64216 17.8002 8.34766 20.5057C11.0531 23.211 14.7228 24.7313 18.5488 24.7313C22.3749 24.7312 26.0446 23.2111 28.75 20.5057C31.4554 17.8002 32.9746 14.1306 32.9746 10.3045C32.9746 9.7579 33.1926 9.23397 33.5791 8.84747C33.9656 8.46101 34.4896 8.24395 35.0361 8.24395ZM14.6055 0.783991C16.4882 0.00422994 18.5599 -0.199482 20.5586 0.198053C22.5575 0.595662 24.3938 1.57723 25.835 3.01837C27.2759 4.45939 28.2576 6.29507 28.6553 8.29376C29.0529 10.2927 28.8483 12.3649 28.0684 14.2479C27.2884 16.1308 25.968 17.7406 24.2734 18.8729C22.579 20.005 20.5867 20.6091 18.5488 20.6092C15.8159 20.6092 13.1942 19.5231 11.2617 17.5906C9.3294 15.6582 8.24414 13.0373 8.24414 10.3045C8.24414 8.26652 8.84828 6.27444 9.98047 4.57989C11.1128 2.88529 12.7225 1.56393 14.6055 0.783991ZM18.5488 4.12188C16.9091 4.12188 15.3362 4.77304 14.1768 5.93243C13.0173 7.09193 12.3652 8.66472 12.3652 10.3045C12.3652 11.5272 12.7281 12.7224 13.4072 13.7391C14.0866 14.7558 15.0529 15.5485 16.1826 16.0164C17.3124 16.4843 18.5556 16.6075 19.7549 16.369C20.954 16.1304 22.0553 15.5411 22.9199 14.6766C23.7846 13.8119 24.3737 12.7099 24.6123 11.5106C24.8508 10.3112 24.7287 9.06801 24.2607 7.93829C23.7928 6.80859 23.0001 5.84323 21.9834 5.16387C20.9667 4.48457 19.7715 4.12196 18.5488 4.12188Z" fill="#48484A"/>
</svg>
