<svg width="38" height="46" viewBox="0 0 38 46" fill="none" xmlns="http://www.w3.org/2000/svg">
<path fill-rule="evenodd" clip-rule="evenodd" d="M32.9757 30.914V2.06545C32.9757 0.923563 33.8896 0 35.0354 0C36.1734 0 37.097 0.904224 37.097 2.06545V43.2736C37.097 44.4155 36.1831 45.3391 35.0354 45.3391C33.8973 45.3391 32.9757 44.4349 32.9757 43.2736V35.0352H2.06165C0.923613 35.0352 4.95297e-05 34.1213 4.95297e-05 32.9736C4.95297e-05 31.8355 0.937116 30.9139 2.06165 30.9139H12.3657C16.9178 30.9139 20.6101 27.2216 20.6101 22.6695C20.6101 18.1174 16.9178 14.4251 12.3657 14.4251C7.81354 14.4251 4.12126 18.1174 4.12126 22.6695C4.12126 23.8075 3.19963 24.7311 2.0616 24.7311C0.923564 24.7311 0 23.8075 0 22.6695C0 15.8392 5.53535 10.3039 12.3656 10.3039C19.1959 10.3039 24.7312 15.8392 24.7312 22.6695C24.7312 25.8362 23.5411 28.7247 21.5819 30.9139L32.9757 30.914Z" fill="#48484A"/>
</svg>
