<svg width="41" height="36" viewBox="0 0 41 36" fill="none" xmlns="http://www.w3.org/2000/svg">
<path d="M40.2639 4.93862L35.8683 0.543044C35.6945 0.371083 35.4877 0.233904 35.2616 0.139228L35.2307 0.1315V0.129567C35.0163 0.0445511 34.7883 0.000114154 34.5564 0.000114154C34.3265 0.000114154 34.0966 0.0445531 33.8821 0.129567L33.8531 0.137296V0.139228C33.6251 0.23197 33.4184 0.371083 33.2445 0.543044L28.8489 4.93862C28.1456 5.66513 28.1553 6.82245 28.8701 7.53926C29.5869 8.25414 30.7424 8.26379 31.4708 7.56051L32.7073 6.32974V9.18926C32.7073 14.8582 28.1649 19.5571 22.2643 20.3861V6.32984L23.5009 7.56061C23.8467 7.91806 24.3221 8.12285 24.8186 8.12671C25.3171 8.13058 25.7944 7.93543 26.1479 7.58376C26.4996 7.23211 26.6947 6.75294 26.6909 6.25639C26.6851 5.7579 26.4822 5.28455 26.1248 4.93866L21.7176 0.543078C21.5437 0.371117 21.3369 0.233938 21.1089 0.139262L21.0799 0.131534V0.129602C20.8655 0.0445855 20.6356 0.000148117 20.4037 0.000148117C20.1718 0.000148117 19.9439 0.0445875 19.7294 0.129602L19.7004 0.13733L19.6985 0.139262C19.4724 0.233938 19.2657 0.371117 19.0918 0.543078L14.6962 4.93866C13.9929 5.66516 14.0026 6.82249 14.7174 7.5393C15.4342 8.25418 16.5916 8.26382 17.3181 7.56055L18.5546 6.32978V20.384C12.6538 19.5551 8.11161 14.8581 8.11161 9.18722V6.32963L9.34818 7.5604C10.0766 8.26371 11.2339 8.25401 11.9488 7.53915C12.6637 6.82234 12.6753 5.66497 11.972 4.93851L7.56479 0.54293C7.3909 0.370969 7.18417 0.231856 6.95809 0.139114L6.92524 0.129453C6.71078 0.0444369 6.48085 0 6.25092 0C6.01906 0 5.79107 0.0444389 5.5766 0.129453L5.54568 0.137182V0.139114C5.31962 0.23379 5.11289 0.370969 4.93898 0.54293L0.543395 4.93851C-0.181132 5.66304 -0.181132 6.83777 0.543395 7.56234C1.26792 8.28494 2.44265 8.28494 3.16723 7.56041L4.39608 6.32964V9.18916C4.39608 16.8964 10.5942 23.2607 18.5488 24.1283V27.8129L15.7163 27.8148C14.6922 27.8148 13.8614 28.6456 13.8614 29.6696C13.8614 30.6937 14.6922 31.5245 15.7163 31.5245H18.5488V33.2267C18.5488 34.2507 19.3796 35.0815 20.4036 35.0815C21.4276 35.0815 22.2585 34.2507 22.2585 33.2267V31.5245H25.091C26.115 31.5245 26.9458 30.6937 26.9458 29.6696C26.9458 28.6456 26.115 27.8148 25.091 27.8148H22.2585V24.1302C30.213 23.2646 36.4112 16.8983 36.4112 9.19109V6.32959L37.64 7.56037C38.3645 8.28489 39.5393 8.28489 40.2638 7.5623C40.6116 7.21452 40.8068 6.74112 40.8068 6.25041C40.8068 5.75772 40.6116 5.28628 40.2638 4.93851L40.2639 4.93862Z" fill="#48484A"/>
</svg>
