<svg width="42" height="42" viewBox="0 0 42 42" fill="none" xmlns="http://www.w3.org/2000/svg">
<path d="M8.24414 0C8.79059 0.000104534 9.31476 0.217108 9.70117 0.603516C10.0876 0.989924 10.3046 1.51409 10.3047 2.06055V12.3652H18.5488V2.06055C18.5489 1.51409 18.7659 0.989924 19.1523 0.603516C19.5388 0.21714 20.0629 0 20.6094 0C21.1559 2.77774e-06 21.6799 0.217136 22.0664 0.603516C22.4528 0.989924 22.6698 1.51409 22.6699 2.06055V12.3652H30.9141V2.06055C30.9142 1.51409 31.1312 0.989924 31.5176 0.603516C31.904 0.217109 32.4282 9.89801e-05 32.9746 0H39.1582C39.7046 0.0001087 40.2288 0.217112 40.6152 0.603516C41.0016 0.989923 41.2186 1.5141 41.2188 2.06055C41.2188 2.60714 41.0017 3.13205 40.6152 3.51855C40.2288 3.9049 39.7046 4.12196 39.1582 4.12207H35.0361V24.7314H39.1582C39.7046 24.7316 40.2288 24.9486 40.6152 25.335C41.0016 25.7214 41.2187 26.2455 41.2188 26.792C41.2188 27.3384 41.0016 27.8626 40.6152 28.249C40.2288 28.6354 39.7046 28.8534 39.1582 28.8535H32.9746C32.4281 28.8534 31.904 28.6354 31.5176 28.249C31.1313 27.8625 30.9141 27.3385 30.9141 26.792V16.4873H22.6699V25.0195C24.6127 25.5211 26.3065 26.7143 27.4326 28.375C28.5586 30.0355 29.0398 32.0498 28.7871 34.04C28.5343 36.0305 27.5641 37.8611 26.0586 39.1875C24.5531 40.5137 22.6157 41.2451 20.6094 41.2451C18.603 41.2451 16.6656 40.5137 15.1602 39.1875C13.6546 37.8611 12.6845 36.0305 12.4316 34.04C12.1789 32.0497 12.6602 30.0355 13.7861 28.375C14.9123 26.7143 16.6061 25.5211 18.5488 25.0195V16.4873H10.3047V26.792C10.3047 27.3385 10.0875 27.8626 9.70117 28.249C9.31476 28.6354 8.79059 28.8534 8.24414 28.8535H2.06055C1.51409 28.8534 0.989924 28.6354 0.603516 28.249C0.217194 27.8626 0 27.3385 0 26.792C4.81034e-05 26.2455 0.217123 25.7214 0.603516 25.335C0.989924 24.9486 1.51409 24.7315 2.06055 24.7314H6.18262V4.12207H2.06055C1.51414 4.12197 0.989915 3.9049 0.603516 3.51855C0.217015 3.13205 0 2.60714 0 2.06055C0.000103146 1.51409 0.217107 0.989924 0.603516 0.603516C0.989924 0.217107 1.51409 0.000103146 2.06055 0H8.24414ZM20.6094 28.8535C19.7941 28.8535 18.9972 29.0949 18.3193 29.5479C17.6415 30.0008 17.1127 30.6443 16.8008 31.3975C16.4888 32.1506 16.4074 32.9797 16.5664 33.7793C16.7254 34.5787 17.118 35.3132 17.6943 35.8896C18.2708 36.4661 19.0061 36.8585 19.8057 37.0176C20.605 37.1765 21.4335 37.0951 22.1865 36.7832C22.9397 36.4712 23.5832 35.9425 24.0361 35.2646C24.489 34.5868 24.7314 33.7898 24.7314 32.9746C24.7313 31.8817 24.2971 30.8334 23.5244 30.0605C22.7514 29.2875 21.7026 28.8535 20.6094 28.8535Z" fill="#48484A"/>
</svg>
