<svg width="40" height="42" viewBox="0 0 40 42" fill="none" xmlns="http://www.w3.org/2000/svg">
<path d="M5.51234 5.17104C5.13461 5.49882 4.88896 5.95277 4.82117 6.44827C4.75338 6.94377 4.86808 7.44702 5.14389 7.86421C5.40462 8.2803 5.80535 8.58962 6.27391 8.73647C6.74247 8.88333 7.24807 8.85806 7.69965 8.66523C9.60923 7.87278 11.6992 7.61769 13.7433 7.92758C15.7874 8.23746 17.7079 9.10052 19.2968 10.4233C20.8857 11.7462 22.0826 13.4783 22.7578 15.4324C23.4331 17.3865 23.5611 19.4881 23.1279 21.5097C22.6947 23.5313 21.7168 25.3959 20.3001 26.9017C18.8835 28.4075 17.0819 29.4972 15.0905 30.0528C13.0991 30.6085 10.9936 30.6088 9.00199 30.0539C7.01037 29.499 5.20845 28.41 3.79124 26.9046C3.4943 26.4457 3.02722 26.1236 2.49276 26.0091C1.9583 25.8945 1.40024 25.997 0.941332 26.294C0.482428 26.5909 0.160278 27.058 0.0457519 27.5924C-0.0687744 28.1269 0.0337045 28.685 0.330644 29.1439C0.765386 30.0665 1.26716 30.9561 1.83194 31.8055C4.04632 35.2277 7.22577 37.9164 10.9682 39.5316C14.7107 41.1468 18.8481 41.616 22.8572 40.8798C26.8663 40.1436 30.5671 38.2351 33.4915 35.3956C36.416 32.5562 38.4328 28.9132 39.2868 24.9276C40.1409 20.9419 39.7939 16.7925 38.2897 13.004C36.7855 9.21558 34.1917 5.95825 30.8362 3.64395C27.4808 1.32965 23.5144 0.0623276 19.4387 0.00224088C15.363 -0.0578459 11.361 1.092 7.93883 3.30638C7.08547 3.86774 6.27446 4.49097 5.51234 5.17104V5.17104ZM32.9773 11.6525C35.0346 14.8234 35.9399 18.605 35.5416 22.3638C35.1433 26.1226 33.4655 29.6305 30.7893 32.2998C28.113 34.9691 24.6009 36.6378 20.841 37.0264C17.0812 37.4151 13.302 36.5 10.1364 34.4345C13.982 34.9294 17.8732 33.9609 21.0382 31.7211C24.2032 29.4813 26.4108 26.1339 27.2233 22.3426C28.0357 18.5513 27.3935 14.5931 25.4242 11.2531C23.4548 7.91312 20.3021 5.43526 16.5914 4.31096C19.74 3.82029 22.9633 4.25257 25.8714 5.55549C28.7794 6.85842 31.2476 8.97616 32.9773 11.6525V11.6525Z" fill="#48484A"/>
</svg>
