<svg width="42" height="42" viewBox="0 0 42 42" fill="none" xmlns="http://www.w3.org/2000/svg">
<path d="M20.6089 -6.67324e-07C23.3152 -7.54955e-07 25.9953 0.532754 28.4956 1.56836C30.996 2.60406 33.2684 4.12241 35.1821 6.03613C37.0959 7.94989 38.6142 10.2222 39.6499 12.7227C40.6855 15.223 41.2182 17.903 41.2182 20.6094C41.2182 24.6855 40.0092 28.6704 37.7446 32.0596C35.48 35.4486 32.2613 38.0906 28.4956 39.6504C24.7298 41.2101 20.586 41.6175 16.5884 40.8223C12.5906 40.027 8.91789 38.0649 6.03563 35.1826C3.1534 32.3004 1.19119 28.6277 0.395982 24.6299C-0.399207 20.6321 0.00897316 16.4885 1.56883 12.7227C3.12864 8.95695 5.76969 5.7382 9.15868 3.47363C12.5478 1.20908 16.5328 3.12925e-05 20.6089 -6.67324e-07ZM26.9184 5.37695C23.9058 4.12907 20.5903 3.80231 17.3921 4.43848C14.194 5.0747 11.2564 6.64544 8.95067 8.95117C6.64494 11.2569 5.07416 14.1944 4.43797 17.3926C3.8018 20.5908 4.12855 23.9062 5.37645 26.9189C6.62432 29.9316 8.73746 32.5067 11.4487 34.3184C14.16 36.13 17.348 37.0966 20.6089 37.0967C24.9816 37.0967 29.1751 35.3595 32.2671 32.2676C35.3591 29.1756 37.0962 24.9821 37.0962 20.6094C37.0962 17.3485 36.1295 14.1606 34.3179 11.4492C32.5062 8.73793 29.9311 6.62483 26.9184 5.37695ZM20.6089 16.4873C22.8853 16.4873 24.7309 18.3329 24.7309 20.6094C24.7309 22.8858 22.8853 24.7314 20.6089 24.7314C18.3325 24.7314 16.4869 22.8858 16.4868 20.6094C16.4868 18.3329 18.3324 16.4873 20.6089 16.4873Z" fill="#48484A"/>
</svg>
