<svg width="52" height="52" viewBox="0 0 52 52" fill="none" xmlns="http://www.w3.org/2000/svg">
<path d="M22.3322 10.7919C23.3608 10.7894 24.3483 11.1955 25.0775 11.9208C25.8068 12.6462 26.2182 13.6315 26.2212 14.66V33.501C26.2239 35.9215 27.1867 38.2421 28.8982 39.9536C30.6098 41.6652 32.9303 42.6279 35.3508 42.6306H43.774C43.9595 42.6307 44.1408 42.6858 44.2951 42.7889C44.4493 42.892 44.5695 43.0385 44.6405 43.2099C44.7115 43.3813 44.7302 43.5699 44.6941 43.7518C44.6579 43.9338 44.5687 44.101 44.4376 44.2323L39.4206 49.2554C39.1276 49.5497 38.9632 49.9482 38.9634 50.3635C38.9636 50.7789 39.1285 51.1772 39.4219 51.4712C39.7206 51.7559 40.1176 51.9148 40.5304 51.9148C40.9431 51.9148 41.3401 51.7559 41.6389 51.4712L51.8721 41.2281C51.9149 41.1852 51.939 41.1271 51.939 41.0665C51.939 41.0059 51.9149 40.9477 51.8721 40.9049L41.6597 30.6919C41.366 30.3982 40.9677 30.2332 40.5524 30.2332C40.1371 30.2332 39.7388 30.3982 39.4451 30.6919C39.1514 30.9855 38.9865 31.3838 38.9865 31.7991C38.9865 32.2145 39.1514 32.6128 39.4451 32.9064L44.4377 37.8996C44.5691 38.0308 44.6587 38.198 44.695 38.3801C44.7313 38.5623 44.7128 38.7511 44.6417 38.9226C44.5706 39.0942 44.4502 39.2408 44.2958 39.3439C44.1413 39.447 43.9597 39.502 43.774 39.5018H35.3068C33.7274 39.5001 32.2132 38.8719 31.0964 37.755C29.9796 36.6381 29.3516 35.1238 29.35 33.5444V14.9858C29.3431 13.9984 29.1416 13.0221 28.7573 12.1126C28.3729 11.2031 27.813 10.3782 27.1097 9.68521C25.852 8.40655 24.138 7.67967 22.3445 7.66435C22.32 7.66435 22.2956 7.66435 22.2724 7.66496C20.5091 7.67837 18.8183 8.36805 17.5487 9.59171C17.3738 9.76047 17.1403 9.85478 16.8973 9.85478C16.6543 9.85478 16.4207 9.76047 16.2459 9.59171C15.2717 8.67473 14.0565 8.05418 12.7425 7.80268C11.4285 7.55117 10.07 7.67912 8.82609 8.17155C8.68977 8.22676 8.54237 8.24914 8.39581 8.23689C8.24924 8.22463 8.10761 8.17809 7.98235 8.101C7.85709 8.02392 7.75171 7.91846 7.67472 7.79314C7.59773 7.66783 7.55129 7.52616 7.53914 7.37959C7.40134 5.766 6.80935 4.22445 5.8317 2.93339C4.85405 1.64233 3.53073 0.654564 2.01494 0.0844544C1.7802 0.00263967 1.52894 -0.0201923 1.28329 0.0179694C1.03764 0.0561312 0.805147 0.154115 0.606286 0.303291C0.407425 0.452467 0.2483 0.648257 0.142928 0.873415C0.0375551 1.09857 -0.0108313 1.34619 0.0020307 1.59445C0.0125846 1.92452 0.121869 2.24384 0.315765 2.51116C0.509662 2.77848 0.779261 2.98152 1.08974 3.09405C2.08118 3.49545 2.92956 4.18478 3.52539 5.07307C4.12122 5.96136 4.43715 7.00784 4.4324 8.07745V36.7642C4.42302 37.1719 4.56536 37.5685 4.83182 37.8772C5.09828 38.1859 5.46988 38.3846 5.87456 38.4349C6.08975 38.4518 6.30612 38.4241 6.51006 38.3533C6.71399 38.2825 6.90107 38.1703 7.0595 38.0237C7.21794 37.8771 7.3443 37.6993 7.43064 37.5014C7.51697 37.3036 7.56141 37.09 7.56115 36.8742V14.8311C7.54692 13.8477 7.89612 12.8937 8.5418 12.1518C9.18749 11.4099 10.0843 10.9324 11.0602 10.8108C11.5967 10.7569 12.1385 10.8168 12.6502 10.9866C13.162 11.1563 13.6322 11.4321 14.0301 11.7959C14.4283 12.1592 14.7465 12.6016 14.9643 13.0947C15.1821 13.5878 15.2947 14.121 15.295 14.66V36.8742C15.3015 37.2914 15.4719 37.6894 15.7692 37.9822C16.0666 38.2749 16.4672 38.439 16.8845 38.439C17.3018 38.439 17.7023 38.2749 17.9997 37.9822C18.2971 37.6894 18.4674 37.2914 18.4739 36.8742V14.8354C18.4627 13.8573 18.8089 12.9087 19.4475 12.1678C20.0862 11.4269 20.9733 10.9445 21.9424 10.8114C22.0719 10.7982 22.202 10.7917 22.3322 10.7919V10.7919Z" fill="#48484A"/>
</svg>
