<svg width="29" height="42" viewBox="0 0 29 42" fill="none" xmlns="http://www.w3.org/2000/svg">
<path d="M28.839 14.5169C28.8276 11.4612 27.8461 8.48796 26.0362 6.02588L28.3032 3.53215C28.5037 3.33543 28.6619 3.09978 28.7681 2.8397C28.8742 2.57961 28.9261 2.30057 28.9204 2.01971C28.9148 1.73885 28.8519 1.4621 28.7354 1.20647C28.6189 0.950836 28.4514 0.721711 28.2432 0.533168C28.0349 0.344625 27.7903 0.200643 27.5244 0.110068C27.2585 0.0194924 26.9769 -0.0157649 26.6969 0.00646095C26.4168 0.0286868 26.1443 0.107927 25.896 0.239314C25.6477 0.370701 25.4289 0.551462 25.253 0.770493L23.1921 3.07874C20.6916 1.14018 17.6176 0.0881045 14.4537 0.0881045C11.2898 0.0881045 8.21574 1.14018 5.71532 3.07874L3.65438 0.770493C3.28816 0.355081 2.77192 0.102164 2.21923 0.0673787C1.66653 0.0325937 1.12265 0.218791 0.707242 0.585009C0.29183 0.951227 0.0389119 1.46747 0.00412684 2.02016C-0.0306582 2.57286 0.15554 3.11674 0.521758 3.53215L2.76818 6.02588C1.32922 8.03371 0.429932 10.3774 0.156445 12.8324C-0.117042 15.2875 0.244439 17.7716 1.20626 20.0469C2.16808 22.3221 3.69802 24.3123 5.64952 25.8268C7.60103 27.3413 9.90872 28.3293 12.3515 28.6962V31.0044H10.2906C9.744 31.0044 9.2198 31.2216 8.8333 31.6081C8.44679 31.9946 8.22966 32.5188 8.22966 33.0654C8.22966 33.612 8.44679 34.1362 8.8333 34.5227C9.2198 34.9092 9.744 35.1263 10.2906 35.1263H12.3515V39.2482C12.3515 39.7948 12.5687 40.319 12.9552 40.7055C13.3417 41.092 13.8659 41.3091 14.4125 41.3091C14.9591 41.3091 15.4833 41.092 15.8698 40.7055C16.2563 40.319 16.4734 39.7948 16.4734 39.2482V35.1263H18.5343C19.0809 35.1263 19.6051 34.9092 19.9916 34.5227C20.3781 34.1362 20.5953 33.612 20.5953 33.0654C20.5953 32.5188 20.3781 31.9946 19.9916 31.6081C19.6051 31.2216 19.0809 31.0044 18.5343 31.0044H16.4734V28.7786C19.904 28.2835 23.0417 26.5697 25.3124 23.9508C27.5831 21.332 28.835 17.9831 28.839 14.5169V14.5169ZM4.10779 14.5169C4.10779 12.4789 4.71215 10.4866 5.84444 8.79197C6.97673 7.09737 8.5861 5.77659 10.469 4.99665C12.352 4.21672 14.4239 4.01265 16.4228 4.41026C18.4217 4.80787 20.2578 5.78929 21.699 7.23043C23.1401 8.67157 24.1215 10.5077 24.5192 12.5066C24.9168 14.5055 24.7127 16.5774 23.9328 18.4604C23.1528 20.3433 21.832 21.9527 20.1374 23.085C18.4428 24.2173 16.4505 24.8216 14.4125 24.8216C11.6795 24.8216 9.05846 23.736 7.12596 21.8035C5.19346 19.8709 4.10779 17.2499 4.10779 14.5169V14.5169Z" fill="#48484A"/>
</svg>
