<svg width="44" height="52" viewBox="0 0 44 52" fill="none" xmlns="http://www.w3.org/2000/svg">
<path d="M17.7974 3.13004C18.0555 3.12999 18.3134 3.14305 18.5701 3.16916C20.5114 3.42288 22.2922 4.37999 23.5749 5.85908C24.8576 7.33818 25.5531 9.23647 25.5295 11.1942L25.5406 38.5783C25.561 40.1389 25.3141 41.6915 24.8106 43.1688C24.21 44.4833 23.3508 45.6634 22.2844 46.6387C21.2179 47.614 19.9659 48.3646 18.6031 48.8456C18.2666 48.9378 17.9686 49.1358 17.7533 49.4104C17.5379 49.6849 17.4167 50.0215 17.4074 50.3703C17.4069 50.6162 17.4638 50.8589 17.5735 51.079C17.6832 51.2991 17.8428 51.4906 18.0395 51.6382C18.2298 51.7842 18.4516 51.8838 18.6872 51.9291C18.9228 51.9744 19.1657 51.9642 19.3966 51.8992C22.5165 50.9727 25.1869 48.9319 26.9002 46.1649C26.9645 46.0414 27.0555 45.9338 27.1666 45.8499C27.2777 45.7659 27.406 45.7077 27.5423 45.6794C27.6787 45.6512 27.8196 45.6536 27.9549 45.6865C28.0902 45.7194 28.2164 45.7819 28.3246 45.8696C30.0206 47.2174 32.1274 47.9432 34.2936 47.9261C39.1256 47.9261 43.0577 44.5118 43.0577 40.3144C43.0577 36.1237 39.1097 32.7143 34.2557 32.7143C32.7876 32.7049 31.3371 33.0353 30.0179 33.6796C29.8748 33.7512 29.7157 33.785 29.5558 33.7779C29.3959 33.7707 29.2405 33.7227 29.1044 33.6385C28.9683 33.5544 28.856 33.4368 28.7781 33.2969C28.7002 33.1571 28.6594 32.9997 28.6595 32.8396V11.303C28.7001 8.5156 27.6967 5.81385 25.8465 3.72876C23.9962 1.64366 21.433 0.326027 18.6606 0.0348444C16.8508 -0.110579 15.0336 0.200714 13.3754 0.940173C11.7173 1.67963 10.2713 2.82359 9.17021 4.26712C9.07888 4.37528 8.96504 4.46221 8.83664 4.52184C8.70825 4.58147 8.56839 4.61236 8.42682 4.61236C8.28526 4.61236 8.14539 4.58147 8.017 4.52184C7.8886 4.46221 7.77477 4.37528 7.68344 4.26712C6.23352 2.38732 4.2155 1.02581 1.92958 0.38514C1.70236 0.320989 1.4633 0.310852 1.23146 0.35554C0.999633 0.400227 0.781462 0.498502 0.594372 0.642515C0.409103 0.782399 0.258953 0.963502 0.155816 1.17148C0.0526778 1.37945 -0.000613833 1.60859 0.000161539 1.84073C-0.00492798 2.20139 0.110376 2.55344 0.327833 2.8412C0.545289 3.12897 0.852485 3.33601 1.20082 3.42958C2.81482 3.89942 4.23346 4.87889 5.24476 6.22164C6.25607 7.56439 6.80574 9.19833 6.81165 10.8793V33.6662C6.81282 34.0938 6.9835 34.5035 7.28627 34.8054C7.58905 35.1074 7.9992 35.2769 8.4268 35.2769C8.8544 35.2769 9.26455 35.1074 9.56732 34.8054C9.87009 34.5035 10.0408 34.0938 10.0419 33.6662V10.8793C10.0429 8.8233 10.8604 6.85185 12.3148 5.39861C13.7692 3.94536 15.7413 3.12934 17.7973 3.13004H17.7974ZM34.2936 44.7961C31.1868 44.7961 28.6596 42.7855 28.6596 40.3144C28.6967 39.6219 28.9019 38.9487 29.2574 38.3532C29.613 37.7577 30.1082 37.2577 30.7002 36.8965C31.7532 36.1974 32.9919 35.8308 34.2558 35.8444C37.3479 35.8444 39.9277 37.8911 39.9277 40.3145C39.9277 42.7855 37.4004 44.7961 34.2936 44.7961Z" fill="#48484A"/>
</svg>
