<svg width="52" height="28" viewBox="0 0 52 28" fill="none" xmlns="http://www.w3.org/2000/svg">
<path d="M0.458713 9.70205C0.165537 9.40847 0.000865477 9.01053 0.000865477 8.59564C0.000865477 8.18074 0.165537 7.7828 0.458713 7.48923L7.84235 0.104967C7.86429 0.0738138 7.89341 0.0483916 7.92724 0.030844C7.96106 0.0132963 7.99861 0.00413694 8.03672 0.00413694C8.07483 0.00413694 8.11238 0.0132963 8.1462 0.030844C8.18003 0.0483916 8.20915 0.0738138 8.23109 0.104967L16.3476 8.22155C16.5271 8.39113 16.7648 8.48561 17.0118 8.48561C17.2587 8.48561 17.4964 8.39113 17.6759 8.22155L25.782 0.103795C25.804 0.0728874 25.8331 0.0476864 25.8668 0.0302977C25.9005 0.012909 25.9379 0.00383617 25.9758 0.00383617C26.0137 0.00383617 26.0511 0.012909 26.0848 0.0302977C26.1185 0.0476864 26.1476 0.0728874 26.1696 0.103795L34.2873 8.22155C34.4668 8.39113 34.7044 8.48561 34.9514 8.48561C35.1984 8.48561 35.436 8.39113 35.6156 8.22155L43.7211 0.104967C43.7422 0.0728207 43.7709 0.0464074 43.8048 0.0280898C43.8386 0.00977225 43.8764 0.000120838 43.9148 1.12747e-06C43.9533 -0.000118583 43.9912 0.00929631 44.0251 0.027403C44.059 0.0455097 44.0879 0.0717439 44.1092 0.103758L51.5014 7.49653C51.6467 7.64183 51.7619 7.81432 51.8405 8.00416C51.9192 8.194 51.9596 8.39746 51.9596 8.60294C51.9596 8.80841 51.9191 9.01188 51.8405 9.20171C51.7619 9.39154 51.6466 9.56403 51.5013 9.70932C51.356 9.85461 51.1835 9.96986 50.9937 10.0485C50.8039 10.1271 50.6004 10.1676 50.3949 10.1676C50.1894 10.1676 49.986 10.1271 49.7962 10.0485C49.6063 9.96984 49.4338 9.85458 49.2885 9.70929L44.5811 5.00256C44.405 4.8265 44.1662 4.72756 43.9172 4.72747H43.9167C43.6677 4.72756 43.4289 4.8265 43.2528 5.00256L35.1393 13.1276C35.0898 13.1767 35.0229 13.2042 34.9532 13.2042C34.8835 13.2042 34.8166 13.1767 34.7671 13.1276L26.6414 5.00256C26.4653 4.82651 26.2266 4.72756 25.9776 4.72747H25.977C25.728 4.72755 25.4893 4.82649 25.3132 5.00256L17.1997 13.1276C17.1502 13.1767 17.0833 13.2042 17.0136 13.2042C16.9439 13.2042 16.877 13.1767 16.8274 13.1276L8.70052 5.00131C8.61336 4.91411 8.50987 4.84493 8.39597 4.79773C8.28206 4.75053 8.15998 4.72624 8.03668 4.72624C7.91339 4.72624 7.7913 4.75053 7.6774 4.79773C7.5635 4.84493 7.46001 4.91411 7.37285 5.00131L2.67154 9.70205C2.37743 9.99423 1.97969 10.1582 1.56512 10.1582C1.15056 10.1582 0.752819 9.99423 0.458713 9.70205V9.70205ZM44.086 14.2744C44.0639 14.2518 44.0375 14.2338 44.0083 14.2217C43.9791 14.2095 43.9477 14.2033 43.9161 14.2035C43.8842 14.2032 43.8525 14.2093 43.823 14.2215C43.7935 14.2337 43.7668 14.2517 43.7443 14.2744L35.6156 22.4154C35.4395 22.5914 35.2007 22.6903 34.9518 22.6904H34.9511C34.7021 22.6903 34.4633 22.5914 34.2873 22.4154L26.1463 14.2744C26.1242 14.2518 26.0978 14.2338 26.0686 14.2216C26.0394 14.2095 26.0081 14.2033 25.9764 14.2035C25.9445 14.2032 25.9128 14.2093 25.8833 14.2215C25.8538 14.2337 25.827 14.2517 25.8046 14.2744L17.6759 22.4154C17.4998 22.5914 17.261 22.6903 17.012 22.6904H17.0114C16.7624 22.6903 16.5237 22.5914 16.3476 22.4154L8.20726 14.2744C8.15904 14.2352 8.09883 14.2139 8.03672 14.2139C7.97461 14.2139 7.91439 14.2352 7.86618 14.2744L0.458713 21.6818C0.165116 21.9753 0.000112224 22.3733 5.72242e-08 22.7884C-0.00011211 23.2035 0.164677 23.6016 0.458115 23.8952C0.751554 24.1888 1.1496 24.3538 1.5647 24.354C1.9798 24.3541 2.37794 24.1893 2.67154 23.8958L7.37285 19.1951C7.46002 19.1079 7.56351 19.0388 7.67741 18.9916C7.79131 18.9444 7.91339 18.9201 8.03668 18.9201C8.15997 18.9201 8.28205 18.9444 8.39596 18.9916C8.50986 19.0388 8.61335 19.1079 8.70052 19.1951L16.8152 27.3092C16.868 27.3613 16.9393 27.3904 17.0135 27.3902C17.0877 27.39 17.1588 27.3604 17.2113 27.308L25.3132 19.1963C25.4004 19.1091 25.5039 19.0399 25.6179 18.9927C25.7318 18.9455 25.854 18.9213 25.9773 18.9213C26.1006 18.9213 26.2228 18.9455 26.3367 18.9927C26.4507 19.0399 26.5542 19.1091 26.6414 19.1963L34.7543 27.3092C34.8072 27.3613 34.8786 27.3904 34.9529 27.3902C35.0272 27.3899 35.0984 27.3604 35.151 27.3079L43.2529 19.1963C43.429 19.0203 43.6677 18.9213 43.9167 18.9212H43.9173C44.1663 18.9213 44.4051 19.0203 44.5812 19.1963L49.2886 23.9032C49.5822 24.1966 49.9803 24.3614 50.3954 24.3613C50.8105 24.3612 51.2086 24.1961 51.502 23.9025C51.7955 23.6089 51.9602 23.2108 51.9601 22.7957C51.96 22.3806 51.795 21.9825 51.5014 21.6891L44.086 14.2744Z" fill="#48484A"/>
</svg>
