<svg width="52" height="41" viewBox="0 0 52 41" fill="none" xmlns="http://www.w3.org/2000/svg">
<path d="M51.9627 38.4969C51.9623 38.9119 51.7973 39.3097 51.5039 39.6031C51.2105 39.8965 50.8126 40.0615 50.3977 40.0619H1.56935C1.36346 40.0625 1.15949 40.0225 0.969114 39.9441C0.778738 39.8657 0.6057 39.7505 0.459916 39.6051C0.314131 39.4597 0.198466 39.287 0.119545 39.0968C0.0406243 38.9067 0 38.7028 0 38.4969C0 38.2911 0.0406243 38.0872 0.119545 37.897C0.198466 37.7069 0.314131 37.5342 0.459916 37.3888C0.6057 37.2434 0.778738 37.1282 0.969114 37.0498C1.15949 36.9714 1.36346 36.9314 1.56935 36.9319H50.3977C50.8126 36.9323 51.2105 37.0973 51.5039 37.3908C51.7973 37.6842 51.9623 38.082 51.9627 38.4969V38.4969ZM1.56935 30.0459H18.4715C18.8866 30.0459 19.2847 29.881 19.5782 29.5875C19.8717 29.294 20.0366 28.8959 20.0366 28.4809C20.0366 28.0658 19.8717 27.6677 19.5782 27.3742C19.2847 27.0807 18.8866 26.9158 18.4715 26.9158H16.7439C16.6188 26.9159 16.495 26.8909 16.3797 26.8425C16.2644 26.794 16.16 26.7229 16.0726 26.6335C14.1702 24.6837 12.8853 22.216 12.3786 19.5395C11.8718 16.863 12.1658 14.0964 13.2238 11.5862C14.2817 9.07593 16.0566 6.93349 18.3262 5.42706C20.5959 3.92062 23.2594 3.11712 25.9835 3.11712C28.7076 3.11712 31.3712 3.92062 33.6408 5.42706C35.9105 6.93349 37.6853 9.07593 38.7433 11.5862C39.8012 14.0964 40.0952 16.863 39.5885 19.5395C39.0818 22.216 37.7968 24.6837 35.8945 26.6335C35.807 26.7229 35.7026 26.794 35.5873 26.8425C35.4721 26.8909 35.3482 26.9159 35.2232 26.9158H33.4956C33.0805 26.9158 32.6824 27.0807 32.3889 27.3742C32.0954 27.6677 31.9305 28.0658 31.9305 28.4809C31.9305 28.8959 32.0954 29.294 32.3889 29.5875C32.6824 29.881 33.0805 30.0459 33.4956 30.0459H50.3977C50.6138 30.0463 50.8277 30.0019 51.0257 29.9155C51.2238 29.8291 51.4018 29.7026 51.5485 29.5439C51.6952 29.3852 51.8075 29.1979 51.8781 28.9937C51.9488 28.7894 51.9763 28.5728 51.959 28.3574C51.9085 27.9528 51.7096 27.5813 51.4008 27.315C51.092 27.0487 50.6954 26.9064 50.2877 26.9158H41.471C41.3057 26.9157 41.1434 26.872 41.0004 26.7892C40.8574 26.7063 40.7388 26.5871 40.6566 26.4438C40.5744 26.3004 40.5314 26.1379 40.5321 25.9726C40.5328 25.8074 40.577 25.6452 40.6604 25.5025C42.1807 22.8975 42.9749 19.9325 42.9602 16.9163C42.9027 12.5872 41.2103 8.44 38.2227 5.30655C35.235 2.17311 31.1731 0.285214 26.8516 0.021576C23.7986 -0.132428 20.7605 0.540209 18.0577 1.96857C15.355 3.39693 13.0877 5.52808 11.495 8.13734C9.90221 10.7466 9.04301 13.7373 9.00793 16.794C8.97286 19.8508 9.76321 22.8604 11.2957 25.5055C11.3787 25.6482 11.4226 25.8102 11.423 25.9753C11.4234 26.1403 11.3802 26.3026 11.2979 26.4456C11.2155 26.5887 11.0969 26.7075 10.954 26.79C10.8111 26.8726 10.6489 26.916 10.4838 26.9158H1.56935C1.15566 26.9203 0.760188 27.0867 0.46766 27.3792C0.175132 27.6718 0.00881693 28.0673 0.00434871 28.4809C0.00474222 28.8959 0.169752 29.2937 0.463162 29.5871C0.756571 29.8805 1.15441 30.0455 1.56935 30.0459V30.0459Z" fill="#48484A"/>
</svg>
