<svg width="52" height="39" viewBox="0 0 52 39" fill="none" xmlns="http://www.w3.org/2000/svg">
<path d="M9.91574 24.7101C12.5431 24.7055 15.0613 23.659 16.9179 21.8C18.7746 19.9411 19.818 17.4216 19.8193 14.7942C19.825 13.1316 19.4085 11.4947 18.6088 10.037C17.8092 8.57933 16.6525 7.34852 15.2472 6.45996C15.0946 6.36325 14.9732 6.22457 14.8975 6.06058C14.8218 5.89658 14.795 5.71422 14.8204 5.53539C14.8458 5.35655 14.9222 5.18883 15.0405 5.05235C15.1588 4.91587 15.314 4.81643 15.4874 4.76595C20.5536 3.34177 25.8302 2.81705 31.0776 3.21565C37.5545 3.7468 43.8602 5.56516 49.6254 8.5642C49.8947 8.71496 50.2024 8.78292 50.5101 8.75956C50.8178 8.7362 51.1118 8.62256 51.3552 8.43288C51.5986 8.2432 51.7806 7.9859 51.8784 7.69324C51.9762 7.40057 51.9855 7.08554 51.9051 6.78762C51.8541 6.5878 51.762 6.40081 51.6346 6.2386C51.5072 6.07639 51.3474 5.94253 51.1654 5.84557C45.0325 2.53867 38.2664 0.573994 31.3161 0.0819245C30.2145 0.0275092 29.1324 0.000201389 28.0699 0C18.5637 0 10.6409 2.18491 4.48352 6.5107C3.23014 7.34534 2.17972 8.45023 1.40945 9.74417C0.63918 11.0381 0.168638 12.4882 0.0324062 13.9879C0.0104065 14.2575 -0.000391915 14.5262 1.08625e-05 14.7942C0.00291807 17.4231 1.04854 19.9436 2.90747 21.8025C4.76639 23.6615 7.28681 24.7071 9.91574 24.7101V24.7101ZM6.11876 9.18589C7.23641 8.42026 8.56101 8.01377 9.91574 8.02068C11.5435 8.0189 13.1177 8.60163 14.352 9.66281C15.5862 10.724 16.3984 12.1931 16.6407 13.8026C16.883 15.4122 16.5393 17.0553 15.6722 18.4328C14.8051 19.8103 13.4722 20.8307 11.9161 21.3083C10.36 21.7858 8.6842 21.6887 7.19365 21.0347C5.7031 20.3807 4.49693 19.2132 3.79467 17.7448C3.09241 16.2764 2.94076 14.6046 3.3673 13.0337C3.79385 11.4629 4.77023 10.0975 6.11876 9.18589V9.18589ZM42.0425 13.6327C39.4152 13.6372 36.897 14.6838 35.0403 16.5427C33.1837 18.4017 32.1402 20.9212 32.1389 23.5485C32.1331 25.2112 32.5495 26.8481 33.3492 28.3058C34.1489 29.7636 35.3057 30.9944 36.7111 31.8828C36.8636 31.9795 36.985 32.1182 37.0607 32.2822C37.1364 32.4462 37.1632 32.6285 37.1378 32.8074C37.1125 32.9862 37.0361 33.1539 36.9177 33.2904C36.7994 33.4269 36.6443 33.5263 36.4708 33.5768C31.4044 34.9995 26.128 35.5242 20.8806 35.1271C14.4038 34.596 8.09801 32.7776 2.33278 29.7786C2.09444 29.6512 1.82849 29.5843 1.55824 29.5836C1.29572 29.5824 1.03721 29.6481 0.807132 29.7745C0.577052 29.901 0.382988 30.0839 0.24326 30.3062C0.127805 30.4903 0.0513571 30.6961 0.0186491 30.9109C-0.014059 31.1258 -0.00233183 31.345 0.0531048 31.5551C0.104124 31.755 0.19626 31.942 0.323626 32.1042C0.450992 32.2664 0.610789 32.4002 0.79281 32.4972C6.9256 35.8044 13.6918 37.7691 20.6421 38.2609C31.6002 38.7994 40.6302 36.6414 47.4747 31.8321C48.7281 30.9974 49.7785 29.8925 50.5488 28.5986C51.319 27.3047 51.7896 25.8546 51.9258 24.3549C51.9478 24.0859 51.9586 23.8171 51.9582 23.5486C51.9553 20.9196 50.9097 18.3992 49.0508 16.5403C47.1918 14.6813 44.6714 13.6357 42.0425 13.6327H42.0425ZM45.8395 29.1569C44.7218 29.9225 43.3972 30.329 42.0425 30.3221C40.4148 30.3239 38.8406 29.7411 37.6064 28.6799C36.3721 27.6188 35.5599 26.1497 35.3176 24.5402C35.0753 22.9306 35.419 21.2875 36.2861 19.91C37.1532 18.5325 38.4861 17.5121 40.0422 17.0346C41.5983 16.5571 43.2741 16.6542 44.7646 17.3082C46.2552 17.9622 47.4613 19.1296 48.1636 20.5981C48.8658 22.0665 49.0175 23.7382 48.5909 25.3091C48.1644 26.8799 47.188 28.2453 45.8395 29.1569V29.1569Z" fill="#48484A"/>
</svg>
