<svg width="42" height="52" viewBox="0 0 42 52" fill="none" xmlns="http://www.w3.org/2000/svg">
<path d="M39.2815 48.8615L39.273 48.8579C38.7828 48.6592 38.2793 48.4337 37.7489 48.1557C37.5497 48.0585 37.4275 47.9968 37.3126 47.9277C37.174 47.844 37.0595 47.726 36.98 47.5849C36.9006 47.4439 36.8589 47.2847 36.8592 47.1229C36.8594 46.961 36.9015 46.802 36.9814 46.6612C37.0613 46.5204 37.1762 46.4026 37.315 46.3194C38.402 45.6575 39.3207 44.7526 39.9989 43.6758C40.9444 42.1301 41.4388 40.3509 41.4264 38.539C41.4264 33.7084 38.0129 29.7784 33.8171 29.7784C32.7387 29.7785 31.6767 30.0425 30.7238 30.5472C30.5807 30.6221 30.4208 30.6588 30.2594 30.6538C30.098 30.6488 29.9406 30.6023 29.8025 30.5186C29.6643 30.435 29.5501 30.3171 29.4709 30.1765C29.3916 30.0358 29.35 29.877 29.3501 29.7155V14.9852C29.3344 12.9987 28.5335 11.0991 27.1221 9.70116C26.4946 9.05965 25.7459 8.54924 24.9195 8.19958C24.093 7.84993 23.2053 7.66801 22.308 7.66439C20.5323 7.66867 18.8271 8.35923 17.5488 9.59168C17.3738 9.76036 17.1403 9.85457 16.8972 9.85446C16.6542 9.85435 16.4207 9.75994 16.246 9.5911C15.2715 8.67499 14.0565 8.055 12.7429 7.80352C11.4293 7.55204 10.0712 7.67945 8.82729 8.17087C8.69096 8.22636 8.54349 8.24897 8.3968 8.23688C8.25011 8.2248 8.10832 8.17835 7.98291 8.10131C7.8575 8.02426 7.75199 7.91878 7.6749 7.79339C7.59782 7.668 7.55134 7.52622 7.53921 7.37954C7.40148 5.76584 6.8095 4.22415 5.83183 2.93298C4.85416 1.6418 3.53077 0.653935 2.01489 0.0837635C1.7801 0.00234436 1.5289 -0.0201708 1.28336 0.0181958C1.03783 0.0565625 0.805473 0.154637 0.606707 0.303804C0.40794 0.452971 0.248845 0.648666 0.143398 0.873698C0.0379496 1.09873 -0.0106246 1.34621 0.00194176 1.59441C0.0124967 1.92448 0.121781 2.24381 0.315677 2.51114C0.509572 2.77846 0.779172 2.98151 1.08965 3.09405C2.08114 3.49517 2.92961 4.18435 3.52546 5.07257C4.12131 5.96079 4.43717 7.00725 4.43226 8.07681V36.8744C4.43266 37.2892 4.59762 37.6869 4.89092 37.9802C5.18422 38.2735 5.5819 38.4384 5.99669 38.4388C6.20197 38.4413 6.40562 38.4023 6.59547 38.3241C6.78531 38.246 6.95744 38.1304 7.10155 37.9842C7.24796 37.8389 7.364 37.666 7.44289 37.4755C7.52179 37.285 7.56197 37.0807 7.56109 36.8744V14.8227C7.54622 13.8384 7.89647 12.8835 8.54424 12.1423C9.192 11.4011 10.0914 10.9261 11.0688 10.8091C11.6044 10.7548 12.1455 10.815 12.6562 10.9854C13.1669 11.1558 13.6356 11.4327 14.0313 11.7978C14.429 12.1611 14.7468 12.6032 14.9643 13.096C15.1819 13.5887 15.2945 14.1214 15.295 14.6601V36.8744C15.3016 37.2917 15.4719 37.6897 15.7692 37.9824C16.0666 38.2752 16.4672 38.4393 16.8845 38.4393C17.3018 38.4393 17.7024 38.2752 17.9997 37.9824C18.2971 37.6897 18.4674 37.2917 18.4739 36.8744V14.8355C18.4626 13.8574 18.8085 12.9089 19.4469 12.1679C20.0854 11.4268 20.9723 10.9443 21.9412 10.8108C22.4807 10.7551 23.0259 10.8131 23.5416 10.981C24.0573 11.1489 24.5321 11.4231 24.9354 11.7858C25.3386 12.1484 25.6614 12.5916 25.8829 13.0867C26.1044 13.5817 26.2197 14.1177 26.2213 14.6601V38.5763C26.2027 40.3641 26.6941 42.1201 27.6378 43.6386C27.6871 43.6992 27.7297 43.765 27.7649 43.8347C28.4203 44.8723 29.2148 45.8153 30.1262 46.6372C30.2361 46.7395 30.3198 46.8666 30.3704 47.008C30.4211 47.1493 30.437 47.3008 30.417 47.4496C30.397 47.5984 30.3417 47.7402 30.2555 47.8632C30.1694 47.9861 30.055 48.0867 29.922 48.1563C29.3788 48.4406 28.8198 48.6936 28.2477 48.9141C27.9356 49.0316 27.6708 49.2484 27.4941 49.5312C27.3174 49.814 27.2387 50.1471 27.27 50.4791C27.287 50.7242 27.3615 50.9619 27.4874 51.173C27.6133 51.384 27.7871 51.5625 27.9947 51.6939C28.1889 51.8205 28.41 51.8996 28.6404 51.9248C28.8707 51.9501 29.1038 51.9208 29.3207 51.8394C30.7198 51.2968 32.0662 50.6271 33.343 49.8386C33.4906 49.7483 33.6605 49.7007 33.8336 49.7014C34.0067 49.702 34.1762 49.7508 34.3231 49.8423C35.5976 50.636 36.9458 51.3046 38.349 51.8388C38.5825 51.9163 38.8311 51.9374 39.0744 51.9006C39.3177 51.8637 39.5488 51.7698 39.7489 51.6265C39.9489 51.4833 40.1123 51.2948 40.2256 51.0764C40.339 50.8579 40.3991 50.6158 40.401 50.3698C40.3846 50.0358 40.2695 49.7142 40.0702 49.4457C39.8709 49.1772 39.5965 48.9739 39.2815 48.8615V48.8615ZM33.8171 44.1707C33.1824 44.1498 32.5612 43.9817 32.0026 43.6797C31.4439 43.3777 30.9631 42.95 30.598 42.4304C30.5227 42.3372 30.4568 42.2369 30.4011 42.1309C29.7025 41.0781 29.3363 39.8397 29.3501 38.5762C29.3501 35.4859 31.396 32.9071 33.8171 32.9071C36.2872 32.9071 38.2976 35.4334 38.2976 38.5389C38.2976 41.6444 36.2872 44.1708 33.8171 44.1708V44.1707Z" fill="#48484A"/>
</svg>
