<svg width="45" height="52" viewBox="0 0 45 52" fill="none" xmlns="http://www.w3.org/2000/svg">
<path d="M25.4755 3.12324C25.9016 3.12348 26.3274 3.14797 26.7507 3.1966C28.2818 3.37425 29.757 3.87793 31.0771 4.67373C32.3971 5.46953 33.5313 6.53896 34.4033 7.81001C35.2752 9.08105 35.8647 10.5242 36.1319 12.0422C36.3992 13.5602 36.338 15.1179 35.9525 16.6103L27.642 40.1599C26.9381 42.1165 26.9424 44.258 27.6542 46.2118C28.366 48.1656 29.7402 49.808 31.5378 50.8533C32.6887 51.4785 33.9613 51.8472 35.2682 51.9338C36.5751 52.0204 37.8852 51.8231 39.1086 51.3553C40.332 50.8875 41.4395 50.1603 42.3552 49.2238C43.2708 48.2872 43.9728 47.1636 44.4129 45.9299C44.4974 45.6999 44.5242 45.4527 44.491 45.2099C44.4577 44.9671 44.3654 44.7362 44.2222 44.5374C44.0674 44.3151 43.8612 44.1335 43.6213 44.0079C43.3813 43.8824 43.1145 43.8165 42.8437 43.816C42.5331 43.8288 42.2343 43.9383 41.989 44.1293C41.7438 44.3202 41.5643 44.583 41.4756 44.8809C41.0571 46.0327 40.2952 47.0283 39.2929 47.7334C38.2906 48.4385 37.0961 48.8191 35.8706 48.8238C34.8794 48.8282 33.903 48.5826 33.0318 48.1098C31.8806 47.4203 31.0072 46.3494 30.5634 45.0831C30.1197 43.8167 30.1335 42.4349 30.6025 41.1777C38.9204 17.6012 38.9204 17.6012 38.9302 17.5773C39.4743 15.7594 39.5956 13.8412 39.2847 11.9693C38.7912 8.48152 36.9937 5.31059 34.2547 3.09577C31.5156 0.880949 28.0387 -0.213026 24.5249 0.0344051C21.0111 0.281836 17.7218 1.85227 15.3201 4.42908C12.9184 7.0059 11.5831 10.3974 11.5832 13.9199C11.5822 15.1105 11.7359 16.2961 12.0404 17.4471L13.3089 21.0849C13.3645 21.2448 13.3759 21.4167 13.3418 21.5825C13.3077 21.7483 13.2294 21.9018 13.1152 22.0268C13.001 22.1518 12.8551 22.2436 12.6931 22.2924C12.531 22.3413 12.3587 22.3454 12.1945 22.3044C11.4495 22.1215 10.6851 22.0301 9.91798 22.0324C8.59512 22.0344 7.286 22.3007 6.06743 22.8155C4.84887 23.3303 3.74541 24.0834 2.82182 25.0304C1.89822 25.9775 1.1731 27.0995 0.689009 28.3306C0.204915 29.5617 -0.0284 30.8771 0.00275547 32.1996C0.025685 32.8884 0.117431 33.5732 0.276624 34.2438C0.629444 35.6231 1.27213 36.9115 2.16186 38.023C3.05159 39.1345 4.16795 40.0436 5.43658 40.6899C6.65681 41.3381 8.00112 41.7189 9.38002 41.807C10.7589 41.8952 12.1408 41.6885 13.4336 41.2009C15.8158 40.2041 17.7341 38.3449 18.8049 35.9949C19.8756 33.645 20.02 30.9775 19.2091 28.5257L15.0657 16.6323C14.8329 15.747 14.7143 14.8354 14.713 13.92C14.7164 12.4009 15.0389 10.8995 15.6598 9.51308C16.2807 8.12668 17.1861 6.88626 18.3172 5.87225C20.2792 4.09887 22.8309 3.11896 25.4755 3.12324V3.12324ZM9.918 38.7209C8.57666 38.7221 7.26511 38.3254 6.14933 37.5809C5.03354 36.8365 4.16367 35.7778 3.64981 34.5388C3.13594 33.2998 3.00117 31.9362 3.26256 30.6205C3.52395 29.3049 4.16974 28.0964 5.11821 27.1479C6.06668 26.1995 7.2752 25.5537 8.59082 25.2923C9.90645 25.0309 11.27 25.1657 12.509 25.6795C13.748 26.1934 14.8068 27.0633 15.5512 28.1791C16.2957 29.2949 16.6924 30.6064 16.6912 31.9477C16.6876 33.743 15.9729 35.4637 14.7034 36.7332C13.434 38.0026 11.7133 38.7174 9.918 38.7209Z" fill="#48484A"/>
</svg>
