<svg width="34" height="52" viewBox="0 0 34 52" fill="none" xmlns="http://www.w3.org/2000/svg">
<path d="M33.0644 51.644H33.0638C32.8922 51.7739 32.6959 51.8673 32.4868 51.9185C32.2778 51.9697 32.0605 51.9775 31.8483 51.9415C31.6362 51.9056 31.4336 51.8265 31.2531 51.7094C31.0726 51.5922 30.918 51.4393 30.7988 51.2601C26.2325 44.481 23.5807 36.5951 23.123 28.4344C23.1089 28.1954 23.0041 27.9707 22.8299 27.8064C22.6557 27.6421 22.4253 27.5505 22.1858 27.5505H11.4889C11.2494 27.5505 11.019 27.6421 10.8448 27.8064C10.6706 27.9707 10.5657 28.1954 10.5517 28.4344C10.0941 36.5951 7.4422 44.481 2.87594 51.2601C2.76346 51.4322 2.6182 51.5804 2.44843 51.6964C2.27866 51.8123 2.08772 51.8937 1.8865 51.9359C1.68529 51.978 1.47774 51.9801 1.27571 51.9421C1.07368 51.904 0.88112 51.8265 0.709031 51.7141C0.536942 51.6016 0.388691 51.4563 0.272743 51.2866C0.156794 51.1168 0.0754195 50.9258 0.0332644 50.7246C-0.00889073 50.5234 -0.0110002 50.3159 0.0270555 50.1138C0.0651112 49.9118 0.142587 49.7192 0.25506 49.5472C4.4622 43.3086 6.92837 36.0604 7.39904 28.5506C7.40737 28.4224 7.38931 28.2939 7.34598 28.1729C7.30265 28.052 7.23498 27.9412 7.14714 27.8475C7.0593 27.7538 6.95317 27.679 6.8353 27.6279C6.71744 27.5768 6.59035 27.5505 6.46188 27.5505H2.61427C2.19921 27.5505 1.80115 27.3856 1.50765 27.0921C1.21416 26.7986 1.04927 26.4005 1.04927 25.9855C1.04927 25.5704 1.21416 25.1723 1.50765 24.8788C1.80115 24.5854 2.19921 24.4205 2.61427 24.4205H6.49925C6.62623 24.4204 6.75188 24.3946 6.86861 24.3446C6.98533 24.2946 7.0907 24.2214 7.17835 24.1295C7.266 24.0376 7.33411 23.9289 7.37857 23.81C7.42302 23.691 7.44289 23.5643 7.43699 23.4375C7.11961 15.9639 4.84249 8.70516 0.83407 2.38949C0.618638 2.03644 0.551695 1.61248 0.647868 1.21023C0.744042 0.807974 0.995513 0.460136 1.34734 0.242709C1.69916 0.0252825 2.12274 -0.0440587 2.52553 0.0498358C2.92832 0.14373 3.27758 0.393227 3.497 0.743817C7.83802 7.57408 10.2897 15.4336 10.6019 23.5206C10.6122 23.7626 10.7155 23.9913 10.8903 24.1589C11.0652 24.3266 11.298 24.4203 11.5402 24.4205H22.1345C22.3767 24.4203 22.6095 24.3266 22.7844 24.1589C22.9592 23.9913 23.0626 23.7626 23.0729 23.5206C23.385 15.4336 25.8367 7.57406 30.1777 0.743804C30.2856 0.568716 30.427 0.41662 30.5938 0.296212C30.7605 0.175805 30.9494 0.0894467 31.1496 0.0420755C31.3497 -0.00529564 31.5573 -0.012751 31.7603 0.0201361C31.9633 0.0530232 32.1579 0.125607 32.3329 0.233739C32.5079 0.341871 32.6598 0.483429 32.78 0.650321C32.9002 0.817213 32.9864 1.00617 33.0336 1.20638C33.0807 1.40659 33.0879 1.61413 33.0548 1.81713C33.0217 2.02014 32.9489 2.21463 32.8406 2.38948C28.8322 8.70516 26.5551 15.9639 26.2377 23.4374C26.2318 23.5643 26.2517 23.691 26.2962 23.81C26.3406 23.9289 26.4087 24.0376 26.4964 24.1295C26.584 24.2214 26.6894 24.2945 26.8062 24.3445C26.9229 24.3946 27.0485 24.4204 27.1755 24.4205H31.0604C31.4755 24.4205 31.8735 24.5853 32.167 24.8788C32.4605 25.1723 32.6254 25.5704 32.6254 25.9855C32.6254 26.4005 32.4605 26.7986 32.167 27.0921C31.8735 27.3856 31.4755 27.5505 31.0604 27.5505H27.2128C27.0843 27.5505 26.9572 27.5768 26.8393 27.6279C26.7215 27.679 26.6153 27.7537 26.5275 27.8475C26.4397 27.9412 26.372 28.052 26.3287 28.1729C26.2853 28.2938 26.2673 28.4224 26.2756 28.5506C26.7463 36.0604 29.2125 43.3086 33.4196 49.5471C33.6379 49.8764 33.7227 50.2764 33.6567 50.6658C33.5908 51.0553 33.379 51.4051 33.0644 51.644V51.644Z" fill="#48484A"/>
</svg>
