<svg width="39" height="52" viewBox="0 0 39 52" fill="none" xmlns="http://www.w3.org/2000/svg">
<path d="M1.57316 0.0022778C1.34882 -7.62226e-06 1.12667 0.0466065 0.922175 0.138878C0.717674 0.231149 0.53573 0.366863 0.388997 0.536579C0.239054 0.710828 0.128231 0.915212 0.0640066 1.13594C-0.000218214 1.35667 -0.0163508 1.5886 0.0166966 1.81609C0.513836 5.36587 1.98 8.70988 4.25404 11.4806C6.52809 14.2513 9.52198 16.3414 12.9067 17.5212C13.0864 17.5844 13.2426 17.7008 13.3546 17.8548C13.4667 18.0089 13.5292 18.1934 13.5339 18.3838C13.5386 18.5743 13.4853 18.7616 13.381 18.921C13.2767 19.0805 13.1264 19.2044 12.9501 19.2764C9.81874 20.5485 7.141 22.7307 5.26302 25.5408C3.38503 28.3509 2.39314 31.6598 2.41558 35.0396C2.47588 39.3693 4.16973 43.5163 7.15787 46.6501C10.146 49.7839 14.2078 51.6731 18.5297 51.9393C22.5315 52.143 26.4764 50.9247 29.6665 48.4999C32.8565 46.0751 35.0861 42.6001 35.9608 38.6898C36.8355 34.7794 36.2988 30.6857 34.4459 27.1328C32.5929 23.58 29.543 20.7971 25.8357 19.2764C25.6594 19.2044 25.5091 19.0805 25.4048 18.9211C25.3005 18.7617 25.2472 18.5743 25.2519 18.3839C25.2566 18.1935 25.3191 18.009 25.4312 17.8549C25.5432 17.7008 25.6994 17.5845 25.8791 17.5213C29.2608 16.3138 32.249 14.2067 34.522 11.4269C36.7949 8.64711 38.2665 5.29992 38.7783 1.74579C38.81 1.52482 38.794 1.29961 38.7314 1.08533C38.6688 0.871055 38.5609 0.672698 38.4151 0.503628C38.2786 0.345138 38.1093 0.218219 37.9189 0.131662C37.7284 0.0451041 37.5215 0.000977467 37.3123 0.0023383C36.9304 -0.0185178 36.5539 0.100701 36.2536 0.337627C35.9534 0.574554 35.7498 0.912908 35.6813 1.28921C35.1428 5.227 33.1961 8.83642 30.2014 11.4494C27.2067 14.0624 23.3668 15.5021 19.3924 15.5019C15.418 15.5018 11.5782 14.0619 8.58365 11.4486C5.58914 8.8354 3.6427 5.22583 3.10458 1.28801C3.06936 0.940668 2.90831 0.618207 2.6518 0.38139C2.39528 0.144573 2.061 0.00975319 1.71196 0.0023383L1.57316 0.0022778ZM19.3929 48.8306C16.6542 48.8306 13.9769 48.0185 11.6997 46.497C9.42257 44.9754 7.64772 42.8127 6.59965 40.2825C5.55158 37.7522 5.27735 34.968 5.81165 32.2819C6.34596 29.5957 7.66478 27.1284 9.60137 25.1918C11.5379 23.2552 14.0053 21.9364 16.6914 21.4021C19.3775 20.8678 22.1618 21.142 24.692 22.1901C27.2223 23.2382 29.385 25.013 30.9065 27.2902C32.4281 29.5674 33.2402 32.2446 33.2402 34.9833C33.2361 38.6546 31.7759 42.1743 29.1799 44.7703C26.5839 47.3663 23.0642 48.8265 19.3929 48.8306V48.8306Z" fill="#48484A"/>
</svg>
