<svg width="52" height="52" viewBox="0 0 52 52" fill="none" xmlns="http://www.w3.org/2000/svg">
<path d="M12.7946 21.7631C12.485 21.763 12.1822 21.8548 11.9247 22.0268C11.6673 22.1988 11.4666 22.4433 11.3481 22.7294C11.2296 23.0155 11.1986 23.3303 11.2591 23.634C11.3196 23.9377 11.4687 24.2166 11.6878 24.4355L17.83 30.5778C17.9173 30.665 17.9865 30.7685 18.0337 30.8825C18.0809 30.9964 18.1052 31.1185 18.1052 31.2419C18.1052 31.3652 18.0809 31.4874 18.0337 31.6013C17.9865 31.7153 17.9173 31.8188 17.83 31.906L0.528502 49.2112C0.244581 49.4745 0.0622147 49.8293 0.0132571 50.2135C-0.0357006 50.5977 0.051862 50.9868 0.26065 51.313C0.392429 51.4994 0.563318 51.6548 0.761381 51.7684C0.959445 51.8819 1.17991 51.9508 1.40737 51.9704C1.63484 51.9899 1.86382 51.9595 2.07832 51.8813C2.29283 51.8032 2.48768 51.6791 2.64928 51.5179L20.045 34.1204C20.2245 33.9507 20.4621 33.8562 20.7091 33.8562C20.9561 33.8562 21.1937 33.9507 21.3732 34.1204L27.5179 40.2657C27.8115 40.5592 28.2098 40.7241 28.625 40.7241C29.0402 40.724 29.4384 40.559 29.732 40.2654C30.0255 39.9717 30.1904 39.5735 30.1904 39.1583C30.1903 38.7431 30.0253 38.3449 29.7317 38.0513L23.587 31.906C23.4997 31.8188 23.4305 31.7153 23.3833 31.6013C23.3361 31.4874 23.3118 31.3652 23.3118 31.2419C23.3118 31.1185 23.3361 30.9964 23.3833 30.8825C23.4305 30.7685 23.4997 30.665 23.587 30.5778L47.208 6.95242C47.3393 6.82107 47.5066 6.7316 47.6888 6.69532C47.8709 6.65904 48.0598 6.67758 48.2314 6.74859C48.403 6.81961 48.5497 6.93991 48.653 7.09429C48.7562 7.24867 48.8114 7.4302 48.8115 7.61592L48.8151 15.8386C48.8009 16.2264 48.9231 16.6068 49.1605 16.9137C49.3978 17.2207 49.7352 17.4347 50.1141 17.5185C50.3396 17.5576 50.571 17.5469 50.7919 17.4872C51.0129 17.4275 51.2182 17.3202 51.3933 17.1728C51.5684 17.0254 51.7092 16.8415 51.8058 16.6339C51.9023 16.4264 51.9524 16.2002 51.9523 15.9713L51.9462 0.231098C51.9463 0.170314 51.9222 0.11199 51.8793 0.0688936C51.8365 0.0257974 51.7783 0.0014397 51.7175 0.00115206H36.1442C35.7569 -0.0133008 35.3768 0.108608 35.0701 0.345632C34.7635 0.582656 34.5497 0.919767 34.4661 1.29821C34.4269 1.52351 34.4374 1.75465 34.497 1.97545C34.5565 2.19624 34.6636 2.40134 34.8108 2.57637C34.958 2.7514 35.1417 2.89212 35.349 2.98866C35.5563 3.08521 35.7822 3.13525 36.0109 3.13527H44.3289C44.5148 3.13508 44.6965 3.19006 44.8511 3.29324C45.0057 3.39642 45.1262 3.54316 45.1973 3.71487C45.2684 3.88658 45.287 4.07554 45.2506 4.2578C45.2142 4.44007 45.1246 4.60744 44.993 4.73873L21.372 28.3634C21.1925 28.5331 20.9549 28.6276 20.7079 28.6276C20.4609 28.6276 20.2232 28.5331 20.0437 28.3634L13.9015 22.2212C13.7564 22.0755 13.5839 21.96 13.3939 21.8814C13.2039 21.8028 13.0002 21.7626 12.7946 21.7631Z" fill="#48484A"/>
</svg>
