<svg width="52" height="43" viewBox="0 0 52 43" fill="none" xmlns="http://www.w3.org/2000/svg">
<path d="M12.5266 3.13013C19.0803 3.13013 24.4119 10.2829 24.4119 19.0748V40.6537C24.413 41.068 24.5784 41.465 24.8718 41.7576C25.1652 42.0501 25.5626 42.2144 25.9769 42.2144C26.3913 42.2144 26.7887 42.0501 27.0821 41.7576C27.3755 41.465 27.5408 41.068 27.542 40.6537V19.0748C27.542 10.283 32.8736 3.13013 39.4273 3.13013C41.4237 3.18947 43.363 3.80949 45.0235 4.91928C46.684 6.02906 47.9987 7.58379 48.8171 9.40565C48.918 9.68397 49.0929 9.92954 49.3229 10.116C49.5528 10.3024 49.8292 10.4227 50.1224 10.464C50.4156 10.5052 50.7145 10.4658 50.987 10.35C51.2594 10.2342 51.4952 10.0464 51.669 9.8067C51.8074 9.61253 51.8991 9.38901 51.9368 9.15359C51.9746 8.91816 51.9574 8.6772 51.8867 8.4495C50.1926 2.96138 44.2026 0 39.4273 0C34.3244 0 29.609 3.28296 26.8139 8.78146C26.7268 8.92558 26.6041 9.04478 26.4574 9.12753C26.3108 9.21027 26.1453 9.25374 25.9769 9.25374C25.8086 9.25374 25.6431 9.21027 25.4964 9.12753C25.3498 9.04478 25.227 8.92558 25.14 8.78146C22.3449 3.28296 17.6295 0 12.5266 0C7.7513 0 1.76126 2.96138 0.0678079 8.4495C-0.00189516 8.67902 -0.0181285 8.92144 0.0203522 9.15821C0.0588328 9.39497 0.151006 9.61978 0.289808 9.81541C0.42861 10.011 0.610356 10.1723 0.821118 10.2868C1.03188 10.4013 1.26607 10.4661 1.50572 10.4761C1.85806 10.5048 2.20988 10.415 2.50537 10.2209C2.80085 10.0269 3.02309 9.73975 3.13682 9.40505C3.95535 7.58334 5.27004 6.02877 6.93054 4.9191C8.59104 3.80944 10.5303 3.18948 12.5266 3.13013V3.13013Z" fill="#48484A"/>
</svg>
