<svg width="40" height="52" viewBox="0 0 40 52" fill="none" xmlns="http://www.w3.org/2000/svg">
<path d="M1.52499 2.29811e-05C1.29125 -0.00129319 1.06067 0.0539435 0.852896 0.161022C0.645127 0.268101 0.466339 0.423844 0.331782 0.614968C0.191618 0.797304 0.0929333 1.00803 0.0426153 1.23244C-0.00770262 1.45685 -0.00844141 1.68954 0.04045 1.91427C0.0893415 2.139 0.186685 2.35035 0.325688 2.53357C0.464691 2.71679 0.642004 2.86747 0.845251 2.9751C3.17834 4.20557 5.65268 5.14715 8.21356 5.77901C8.41556 5.83065 8.59462 5.94809 8.72246 6.1128C8.85031 6.2775 8.91966 6.4801 8.91958 6.6886V45.2973C8.91957 45.5057 8.85018 45.7083 8.72235 45.873C8.59452 46.0377 8.41552 46.1551 8.21356 46.2068C5.65277 46.8387 3.17861 47.7805 0.845868 49.0114C0.645523 49.1189 0.47028 49.2678 0.331714 49.4481C0.193148 49.6284 0.0944146 49.836 0.0420357 50.0573C-0.00915175 50.2716 -0.0136462 50.4944 0.0288579 50.7106C0.071362 50.9268 0.15987 51.1314 0.288378 51.3104C0.518177 51.6267 0.857012 51.8467 1.23948 51.9279C1.62194 52.009 2.02091 51.9456 2.35938 51.7499C7.71056 49.1373 13.6069 47.8365 19.5606 47.9551C25.5145 47.8366 31.4111 49.1374 36.7625 51.7499C37.1009 51.9457 37.4997 52.009 37.8821 51.9279C38.2645 51.8467 38.6032 51.6267 38.8329 51.3104C38.9614 51.1314 39.0499 50.9269 39.0924 50.7107C39.1349 50.4945 39.1304 50.2716 39.0792 50.0573C39.0268 49.8361 38.9282 49.6286 38.7897 49.4483C38.6513 49.268 38.4762 49.1191 38.276 49.0114C35.943 47.7806 33.4686 46.8388 30.9077 46.2069C30.7057 46.1552 30.5267 46.0377 30.3989 45.873C30.2711 45.7083 30.2017 45.5058 30.2017 45.2973V6.6886C30.2016 6.48009 30.2709 6.2775 30.3988 6.1128C30.5266 5.94809 30.7057 5.83065 30.9077 5.77901C33.4922 5.14189 35.9883 4.18866 38.3396 2.94087C38.5322 2.83672 38.7005 2.693 38.8336 2.51917C38.9666 2.34534 39.0614 2.14532 39.1117 1.93226C39.1602 1.72772 39.1643 1.51516 39.1237 1.3089C39.0831 1.10264 38.9988 0.907492 38.8763 0.736611C38.651 0.403234 38.3086 0.166762 37.917 0.0741351C37.5254 -0.0184923 37.1133 0.0394964 36.7625 0.236591C31.4111 2.84916 25.5146 4.14996 19.5607 4.03137C13.5801 4.15336 7.65747 2.83925 2.28969 0.199301C2.05556 0.0697329 1.79258 0.00120017 1.52499 2.29811e-05V2.29811e-05ZM26.1331 45.2667C26.0914 45.2666 26.0497 45.2638 26.0084 45.2582C21.7291 44.6836 17.3922 44.6836 13.1129 45.2582C12.9803 45.276 12.8454 45.2652 12.7173 45.2266C12.5891 45.188 12.4707 45.1224 12.37 45.0343C12.2693 44.9462 12.1886 44.8376 12.1333 44.7157C12.078 44.5939 12.0493 44.4616 12.0493 44.3278V7.65807C12.0493 7.52425 12.078 7.39199 12.1333 7.27014C12.1886 7.1483 12.2693 7.03969 12.37 6.95159C12.4708 6.86349 12.5892 6.79793 12.7173 6.75932C12.8454 6.72071 12.9803 6.70993 13.1129 6.72771C17.3922 7.30231 21.7291 7.30231 26.0084 6.72771C26.141 6.70993 26.2759 6.72071 26.404 6.75932C26.5321 6.79793 26.6505 6.86349 26.7513 6.95159C26.852 7.03969 26.9327 7.1483 26.988 7.27014C27.0433 7.39199 27.072 7.52425 27.072 7.65807V44.3278C27.0719 44.5768 26.9729 44.8155 26.7969 44.9916C26.6208 45.1676 26.3821 45.2666 26.1331 45.2667L26.1331 45.2667Z" fill="#48484A"/>
</svg>
